<?xml version="1.0" encoding="utf-8"?>
<!-- Generator: Adobe Illustrator 23.1.0, SVG Export Plug-In . SVG Version: 6.00 Build 0)  -->
<svg version="1.1" id="Layer_1" xmlns="http://www.w3.org/2000/svg" xmlns:xlink="http://www.w3.org/1999/xlink" x="0px" y="0px"
	 viewBox="0 0 500 500" style="enable-background:new 0 0 500 500;" xml:space="preserve">
<style type="text/css">
	.st0{fill:url(#SVGID_1_);}
	.st1{fill:url(#SVGID_2_);}
	.st2{fill:url(#SVGID_3_);}
	.st3{fill:#0080FF;}
	.st4{fill-rule:evenodd;clip-rule:evenodd;fill:#FF0000;}
	.st5{fill:#00D954;}
	.st6{fill-rule:evenodd;clip-rule:evenodd;fill:#00D954;}
	.st7{fill:#FFFFFF;}
	.st8{fill:#FF0000;}
	.st9{fill-rule:evenodd;clip-rule:evenodd;fill:#FF1753;}
	.st10{fill-rule:evenodd;clip-rule:evenodd;}
	.st11{fill-rule:evenodd;clip-rule:evenodd;fill:#00C9D0;}
	.st12{fill:#117CCC;}
	.st13{fill-rule:evenodd;clip-rule:evenodd;fill:#FFFFFF;}
	.st14{fill:#1BA5D4;}
	.st15{fill:url(#SVGID_4_);}
	.st16{fill:#E02A2F;}
	.st17{fill:#0B8F21;}
	.st18{fill:#E83D80;}
	.st19{fill:#0A66C2;}
	.st20{fill:#FFEC00;}
	.st21{fill:#262626;}
</style>
<g>
	<circle class="st12" cx="250" cy="250" r="138.38"/>
	<path class="st13" d="M267.8,198.62c5.03-0.17,10.06-0.04,15.11-0.05c0.61,0,1.23,0,2.08,0v-26.18c-2.69-0.27-5.5-0.66-8.32-0.79
		c-5.16-0.23-10.33-0.49-15.5-0.37c-7.89,0.17-15.35,2.09-21.88,6.76c-7.48,5.38-11.59,12.93-13.15,21.86
		c-0.65,3.68-0.81,7.49-0.91,11.24c-0.15,5.88-0.03,11.75-0.02,17.63v2.2h-25.05v29.24h24.91v73.51h30.44v-73.39h24.82
		c1.27-9.72,2.52-19.35,3.82-29.38c-1.99,0-3.79-0.01-5.58,0c-7.06,0.03-23.26,0-23.26,0s0.07-14.49,0.24-20.78
		C255.79,201.5,260.9,198.87,267.8,198.62z"/>
</g>
</svg>
