<?xml version="1.0" encoding="utf-8"?>
<!-- Generator: Adobe Illustrator 23.1.0, SVG Export Plug-In . SVG Version: 6.00 Build 0)  -->
<svg version="1.1" id="Layer_1" xmlns="http://www.w3.org/2000/svg" xmlns:xlink="http://www.w3.org/1999/xlink" x="0px" y="0px"
	 viewBox="0 0 500 500" style="enable-background:new 0 0 500 500;" xml:space="preserve">
<style type="text/css">
	.st0{fill:url(#SVGID_1_);}
	.st1{fill:url(#SVGID_2_);}
	.st2{fill:url(#SVGID_3_);}
	.st3{fill:#0080FF;}
	.st4{fill-rule:evenodd;clip-rule:evenodd;fill:#FF0000;}
	.st5{fill:#00D954;}
	.st6{fill-rule:evenodd;clip-rule:evenodd;fill:#00D954;}
	.st7{fill:#FFFFFF;}
	.st8{fill:#FF0000;}
	.st9{fill-rule:evenodd;clip-rule:evenodd;fill:#FF1753;}
	.st10{fill-rule:evenodd;clip-rule:evenodd;}
	.st11{fill-rule:evenodd;clip-rule:evenodd;fill:#00C9D0;}
	.st12{fill:#117CCC;}
	.st13{fill-rule:evenodd;clip-rule:evenodd;fill:#FFFFFF;}
	.st14{fill:#1BA5D4;}
	.st15{fill:url(#SVGID_4_);}
	.st16{fill:#E02A2F;}
	.st17{fill:#0B8F21;}
	.st18{fill:#E83D80;}
	.st19{fill:#0A66C2;}
	.st20{fill:#FFEC00;}
	.st21{fill:#262626;}
</style>
<g>
	<circle class="st19" cx="250" cy="250" r="138.38"/>
	<path class="st7" d="M190.83,221.04h28.09v90.22h-28.09V221.04z M204.87,176.21c8.98,0,16.26,7.29,16.26,16.25
		c0,8.97-7.28,16.27-16.26,16.27c-9,0-16.28-7.3-16.28-16.27C188.59,183.5,195.87,176.21,204.87,176.21"/>
	<path class="st7" d="M236.51,221.04h26.9v12.34h0.37c3.75-7.1,12.9-14.57,26.56-14.57c28.39,0,33.63,18.67,33.63,42.97v49.48
		h-28.02V267.4c0-10.47-0.2-23.93-14.58-23.93c-14.6,0-16.82,11.4-16.82,23.16v44.63h-28.03V221.04z"/>
</g>
</svg>
