<?xml version="1.0" encoding="utf-8"?>
<!-- Generator: Adobe Illustrator 23.1.0, SVG Export Plug-In . SVG Version: 6.00 Build 0)  -->
<svg version="1.1" id="Layer_1" xmlns="http://www.w3.org/2000/svg" xmlns:xlink="http://www.w3.org/1999/xlink" x="0px" y="0px"
	 viewBox="0 0 500 500" style="enable-background:new 0 0 500 500;" xml:space="preserve">
<style type="text/css">
	.st0{fill:url(#SVGID_1_);}
	.st1{fill:url(#SVGID_2_);}
	.st2{fill:url(#SVGID_3_);}
	.st3{fill:#0080FF;}
	.st4{fill-rule:evenodd;clip-rule:evenodd;fill:#FF0000;}
	.st5{fill:#00D954;}
	.st6{fill-rule:evenodd;clip-rule:evenodd;fill:#00D954;}
	.st7{fill:#FFFFFF;}
	.st8{fill:#FF0000;}
	.st9{fill-rule:evenodd;clip-rule:evenodd;fill:#FF1753;}
	.st10{fill-rule:evenodd;clip-rule:evenodd;}
	.st11{fill-rule:evenodd;clip-rule:evenodd;fill:#00C9D0;}
	.st12{fill:#117CCC;}
	.st13{fill-rule:evenodd;clip-rule:evenodd;fill:#FFFFFF;}
	.st14{fill:#1BA5D4;}
	.st15{fill:url(#SVGID_4_);}
	.st16{fill:#E02A2F;}
	.st17{fill:#0B8F21;}
	.st18{fill:#E83D80;}
	.st19{fill:#0A66C2;}
	.st20{fill:#FFEC00;}
	.st21{fill:#262626;}
</style>
<g>
	<circle class="st14" cx="250" cy="250" r="138.38"/>
	<path class="st13" d="M224.77,290.99c-16.91-0.59-27.47-12.72-30.27-22.58c4.71,0.89,9.34,0.71,13.95-0.42
		c0.12-0.03,0.24-0.11,0.47-0.21c-9.16-2.13-16.23-7.03-21.13-14.93c-3.26-5.25-4.82-10.99-4.77-17.3
		c4.57,2.44,9.35,3.81,14.48,3.94c-6.89-4.96-11.5-11.44-13.39-19.74c-1.88-8.28-0.66-16.14,3.49-23.57
		c17.62,20.75,39.91,32.13,67.1,34c-0.19-1.29-0.39-2.42-0.52-3.56c-0.9-7.65,0.62-14.8,4.76-21.27
		c5.17-8.12,12.57-13.16,22.06-14.71c10.94-1.8,20.49,1.33,28.48,9.07c0.54,0.52,0.98,0.69,1.73,0.52
		c6.69-1.45,12.99-3.86,18.93-7.28c0.14-0.08,0.29-0.16,0.43-0.22c0.03-0.02,0.08-0.02,0.22-0.02c-2.57,7.57-7.26,13.4-13.93,17.7
		c6.3-0.69,12.32-2.36,18.12-4.88c0.05,0.05,0.09,0.11,0.13,0.15c-1.25,1.63-2.45,3.29-3.74,4.88c-3.45,4.26-7.42,8-11.83,11.24
		c-0.37,0.28-0.55,0.54-0.54,1.02c0.18,4.83-0.01,9.65-0.61,14.45c-1.25,10.11-4.07,19.75-8.38,28.97
		c-4.46,9.51-10.27,18.1-17.59,25.65c-12.39,12.81-27.33,21.08-44.71,24.92c-5.96,1.31-12.02,1.98-18.12,2.15
		c-18.76,0.55-36.1-4.11-52.06-13.97c-0.2-0.12-0.41-0.26-0.76-0.5c11.36,1.22,22.15-0.23,32.55-4.49
		C214.81,297.75,219.92,294.78,224.77,290.99z"/>
</g>
</svg>
