<?xml version="1.0" encoding="utf-8"?>
<!-- Generator: Adobe Illustrator 23.1.0, SVG Export Plug-In . SVG Version: 6.00 Build 0)  -->
<svg version="1.1" id="Layer_1" xmlns="http://www.w3.org/2000/svg" xmlns:xlink="http://www.w3.org/1999/xlink" x="0px" y="0px"
	 viewBox="0 0 500 500" style="enable-background:new 0 0 500 500;" xml:space="preserve">
<style type="text/css">
	.st0{fill:url(#SVGID_1_);}
	.st1{fill:url(#SVGID_2_);}
	.st2{fill:url(#SVGID_3_);}
	.st3{fill:#0080FF;}
	.st4{fill-rule:evenodd;clip-rule:evenodd;fill:#FF0000;}
	.st5{fill:#00D954;}
	.st6{fill-rule:evenodd;clip-rule:evenodd;fill:#00D954;}
	.st7{fill:#FFFFFF;}
	.st8{fill:#FF0000;}
	.st9{fill-rule:evenodd;clip-rule:evenodd;fill:#FF1753;}
	.st10{fill-rule:evenodd;clip-rule:evenodd;}
	.st11{fill-rule:evenodd;clip-rule:evenodd;fill:#00C9D0;}
	.st12{fill:#117CCC;}
	.st13{fill-rule:evenodd;clip-rule:evenodd;fill:#FFFFFF;}
	.st14{fill:#1BA5D4;}
	.st15{fill:url(#SVGID_4_);}
	.st16{fill:#E02A2F;}
	.st17{fill:#0B8F21;}
	.st18{fill:#E83D80;}
	.st19{fill:#0A66C2;}
	.st20{fill:#FFEC00;}
	.st21{fill:#262626;}
</style>
<g>
	<circle class="st8" cx="250" cy="250" r="138.38"/>
	<path class="st13" d="M192.21,298.02c-5.49-1.8-9.19-5.4-11.18-10.85c-4.84-13.3-6.27-68.95,3.04-79.91
		c3.18-3.74,7.28-5.94,12.16-6.46c25.09-2.7,102.66-2.32,111.6,0.91c5.24,1.88,8.95,5.31,10.97,10.56
		c5.29,13.75,5.48,63.78-0.7,77.02c-1.67,3.59-4.4,6.13-7.87,7.94C300.89,302.14,204.52,302.08,192.21,298.02z M232.07,271.94
		c15.09-7.83,30.05-15.59,45.2-23.44c-15.17-7.91-30.13-15.72-45.2-23.58C232.07,240.64,232.07,256.19,232.07,271.94z"/>
</g>
</svg>
